<?xml version="1.0" encoding="UTF-8" standalone="no"?>
<svg viewbox="0 0 80 80" xmlns="http://www.w3.org/2000/svg">
	<path d="M 40 15 A 25 25 0 0 0 25.041016 20 L 25 20 L 24.896484 20.103516 A 25 25 0 0 0 20.164062 24.835938 L 5 40 L 20.103516 55.103516 A 25 25 0 0 0 24.835938 59.835938 L 25 60 L 25.050781 60 A 25 25 0 0 0 40 65 A 25 25 0 0 0 54.958984 60 L 55 60 L 55.103516 59.896484 A 25 25 0 0 0 59.835938 55.164062 L 75 40 L 59.896484 24.896484 A 25 25 0 0 0 55.164062 20.164062 L 55 20 L 54.949219 20 A 25 25 0 0 0 40 15 z M 40 25 A 15 14.999999 0 0 1 55 40 A 15 14.999999 0 0 1 40 55 A 15 14.999999 0 0 1 25 40 A 15 14.999999 0 0 1 40 25 z "/>
	<circle cx="40" cy="40" r="10"/>
</svg>
